# xmcd
#
# Track frame offsets: 
#        150
#        11887
#        22700
#        35157
#        49190
#        60145
#        70797
#        83945
#        101007
#        115210
#        126755
#
# Disc length: 1936 seconds
#
# Revision: 1
# Processed by: cddbd v1.5.2PL0 Copyright (c) Steve Scherf et al.
# Submitted via: ExactAudioCopy v0.99pb4
#
DISCID=89078e0b
DTITLE=Linda Ronstadt - Hand Sown....Home Grown
DYEAR=1969
DGENRE=CountryRock
TTITLE0=Baby You've Been On My Mind
TTITLE1=Silver Threads And Golden Needles
TTITLE2=Bet No One Ever Hurt This Bad
TTITLE3=A Number And A Name
TTITLE4=The Only Mama That'll Walk The Line
TTITLE5=The Long Way Around
TTITLE6=Break My Mind
TTITLE7=I'll Be Your Baby Tonight
TTITLE8=It's About Time
TTITLE9=We Need A Whole Lot More Of Jesus (And A Lot Less Rock and Roll)
TTITLE10=The Dolphins
EXTD=
EXTT0=
EXTT1=
EXTT2=
EXTT3=
EXTT4=
EXTT5=
EXTT6=
EXTT7=
EXTT8=
EXTT9=
EXTT10=
PLAYORDER=
